/* XPM */
static char *wsjt-0[] = {
/* columns rows colors chars-per-pixel */
"32 32 3 1",
"  c black",
". c blue",
"X c green",
/* pixels */
"                                ",
"            ..X.....            ",
"         XXXX.....XX...         ",
"       XXXXX....XX.X....X       ",
"      XXXXXX....XX.X....XX      ",
"     XXXXXXXX.X.XXXX....XXX     ",
"    XXXXXXXXXXXXXXX......XXX    ",
"   ..XXXXXXXXXXXXXX......XXXX   ",
"   ..XXXXXXXXXXXXXX.......X..   ",
"  ...XXXXXXXXXXXXX...........X  ",
"  ...XXXXXXXXXXXXX..........XX  ",
"  ...XXXXXXX.XXXXX.........XXX  ",
" .....XXXXXX.XX.XX.........XXXX ",
" ......XXX.......XX........XXXX ",
" ......XXXX.......X.........XXX ",
" .......XXX..................XX ",
" .........XX..................X ",
" ...........XXX...............X ",
" ...........XXX................ ",
" .............XX.XXX........... ",
"  ............XXXXXXXXXX......  ",
"  ............XXXXXXXXXXX.....  ",
"  ............XXXXXXXXXXX.....  ",
"   ...........XXXXXXXXXXX....   ",
"   .............XXXXXXX......   ",
"    ............XXXXXXX.....    ",
"     .............XXXX.....     ",
"      ............XXX.....      ",
"       ...........XXX....       ",
"         ..........XX..         ",
"            ........            ",
"                                "
};
